nColumns=28
nRows=54
DataType=double
version=3
OpenSimVersion=4.1
endheader
time	ground_force_1_vx	ground_force_1_vy	ground_force_1_vz	ground_force_1_px	ground_force_1_py	ground_force_1_pz	ground_force_1_mx	ground_force_1_my	ground_force_1_mz	ground_force_2_vx	ground_force_2_vy	ground_force_2_vz	ground_force_2_px	ground_force_2_py	ground_force_2_pz	ground_force_2_mx	ground_force_2_my	ground_force_2_mz	ground_force_3_vx	ground_force_3_vy	ground_force_3_vz	ground_force_3_px	ground_force_3_py	ground_force_3_pz	ground_force_3_mx	ground_force_3_my	ground_force_3_mz
2.785	0	0	0	0	0	0	0	0	0	-13.4888	351.776	-39.0015	-0.237239	0.006	-1.05275	0	-2.23454	0	27.8931	282.684	1.66321	-0.121183	0.006	-1.4803	0	1.62725	0
2.79	0	0	0	0	0	0	0	0	0	-13.1836	354.309	-38.4675	-0.237548	0.006	-1.05269	0	-2.301	0	27.9694	289.703	3.09753	-0.121131	0.006	-1.47948	0	1.76295	0
2.795	0	0	0	0	0	0	0	0	0	-11.8866	354.767	-37.8418	-0.237904	0.006	-1.05256	0	-2.42753	0	27.9694	295.898	3.92151	-0.1214	0.006	-1.47939	0	1.78866	0
2.8	0	0	0	0	0	0	0	0	0	-10.9711	355.438	-37.6893	-0.238435	0.006	-1.0526	0	-2.47696	0	27.6032	300.079	3.9978	-0.121405	0.006	-1.47898	0	1.91852	0
2.805	0	0	0	0	0	0	0	0	0	-10.9863	359.711	-37.7503	-0.238323	0.006	-1.05195	0	-2.50059	0	27.4048	302.826	3.78418	-0.121356	0.006	-1.4791	0	1.95064	0
2.81	0	0	0	0	0	0	0	0	0	-11.3678	364.685	-38.1775	-0.239689	0.006	-1.05165	0	-2.69342	0	27.7252	305.115	3.08227	-0.121679	0.006	-1.47895	0	2.02719	0
2.815	0	0	0	0	0	0	0	0	0	-11.5509	368.774	-38.6048	-0.239587	0.006	-1.05148	0	-2.77704	0	28.5645	308.136	2.85339	-0.121916	0.006	-1.47884	0	2.10854	0
2.82	0	0	0	0	0	0	0	0	0	-11.1542	370.148	-38.3759	-0.240139	0.006	-1.05176	0	-2.79769	0	29.5105	311.218	2.91443	-0.122142	0.006	-1.47829	0	2.12325	0
2.825	0	0	0	0	0	0	0	0	0	-10.7117	371.674	-38.498	-0.240853	0.006	-1.05178	0	-2.90336	0	30.5481	313.629	2.13623	-0.12198	0.006	-1.47839	0	2.23593	0
2.83	0	0	0	0	0	0	0	0	0	-10.91	376.221	-38.8947	-0.241312	0.006	-1.0514	0	-3.03527	0	31.3263	316.04	1.63269	-0.122349	0.006	-1.47832	0	2.21809	0
2.835	0	0	0	0	0	0	0	0	0	-10.9405	381.622	-38.9863	-0.241699	0.006	-1.05141	0	-3.09746	0	32.1503	319.092	1.11389	-0.122463	0.006	-1.47785	0	2.28288	0
2.84	0	0	0	0	0	0	0	0	0	-10.1776	385.864	-39.2151	-0.242723	0.006	-1.05102	0	-3.28658	0	32.6691	321.991	0.595092	-0.122621	0.006	-1.47753	0	2.33655	0
2.845	0	0	0	0	0	0	0	0	0	-8.98742	388.916	-39.0473	-0.243323	0.006	-1.05076	0	-3.36702	0	32.7301	324.219	-0.198365	-0.122944	0.006	-1.47742	0	2.37071	0
2.85	0	0	0	0	0	0	0	0	0	-7.9956	390.32	-38.6506	-0.243891	0.006	-1.05089	0	-3.39558	0	33.0048	327.789	-0.793458	-0.122904	0.006	-1.47708	0	2.42543	0
2.855	0	0	0	0	0	0	0	0	0	-6.86645	391.907	-38.3454	-0.244922	0.006	-1.05098	0	-3.5972	0	33.5083	331.909	-1.52588	-0.123061	0.006	-1.47659	0	2.52385	0
2.86	0	0	0	0	0	0	0	0	0	-6.37817	393.646	-37.7655	-0.245066	0.006	-1.0507	0	-3.63104	0	34.0118	334.564	-2.13623	-0.123188	0.006	-1.47625	0	2.56699	0
2.865	0	0	0	0	0	0	0	0	0	-5.53893	393.097	-37.2162	-0.245779	0.006	-1.05081	0	-3.62744	0	34.3475	336.304	-2.5177	-0.123362	0.006	-1.47633	0	2.6701	0
2.87	0	0	0	0	0	0	0	0	0	-4.36401	390.9	-35.8887	-0.246406	0.006	-1.05121	0	-3.65351	0	34.7443	336.151	-2.38037	-0.123592	0.006	-1.47604	0	2.75196	0
2.875	0	0	0	0	0	0	0	0	0	-3.70788	389.496	-35.0037	-0.246563	0.006	-1.05094	0	-3.77236	0	35.1715	335.022	-1.78528	-0.12371	0.006	-1.47646	0	2.7524	0
2.88	0	0	0	0	0	0	0	0	0	-3.06701	389.099	-34.3628	-0.2472	0.006	-1.0508	0	-3.84031	0	35.1563	333.313	-0.656128	-0.123575	0.006	-1.47665	0	2.77394	0
2.885	0	0	0	0	0	0	0	0	0	-2.45666	388.397	-33.7067	-0.247241	0.006	-1.05073	0	-3.84735	0	34.8206	332.001	-0.0152587	-0.123684	0.006	-1.47662	0	2.82756	0
2.89	0	0	0	0	0	0	0	0	0	-1.44958	386.322	-33.5389	-0.24723	0.006	-1.05068	0	-3.97633	0	34.4543	330.292	0.152588	-0.123868	0.006	-1.47691	0	2.85089	0
2.895	0	0	0	0	0	0	0	0	0	-1.00707	385.254	-33.3863	-0.247746	0.006	-1.05038	0	-3.99794	0	34.317	328.979	-0.0610347	-0.12405	0.006	-1.47723	0	2.87552	0
2.9	0	0	0	0	0	0	0	0	0	-0.808711	384.766	-33.3252	-0.248125	0.006	-1.05069	0	-3.91338	0	33.9203	328.033	-0.671386	-0.124284	0.006	-1.4769	0	2.91457	0
2.905	0	0	0	0	0	0	0	0	0	-0.518794	386.108	-33.5236	-0.248131	0.006	-1.05034	0	-4.05601	0	33.844	329.834	-1.05286	-0.124329	0.006	-1.47693	0	2.92228	0
2.91	0	0	0	0	0	0	0	0	0	0.198369	386.353	-33.4015	-0.248303	0.006	-1.0505	0	-3.88845	0	33.8135	332.733	-1.70898	-0.124456	0.006	-1.47696	0	2.94711	0
2.915	0	0	0	0	0	0	0	0	0	1.70899	386.383	-33.3405	-0.248559	0.006	-1.05025	0	-3.89965	0	33.4778	336.426	-2.54822	-0.12453	0.006	-1.47669	0	2.99741	0
2.92	0	0	0	0	0	0	0	0	0	3.17383	386.078	-33.371	-0.249073	0.006	-1.05023	0	-3.92399	0	33.3099	338.44	-3.93677	-0.124441	0.006	-1.47664	0	3.03603	0
2.925	0	0	0	0	0	0	0	0	0	4.13514	387.756	-33.6151	-0.24966	0.006	-1.04999	0	-3.96085	0	33.1879	341.431	-5.09643	-0.124461	0.006	-1.47647	0	3.08032	0
2.93	0	0	0	0	0	0	0	0	0	5.09644	391.357	-34.195	-0.249224	0.006	-1.04996	0	-4.0148	0	33.3862	344.91	-5.66101	-0.124494	0.006	-1.47636	0	3.14521	0
2.935	0	0	0	0	0	0	0	0	0	6.08826	394.196	-34.5154	-0.249656	0.006	-1.04984	0	-4.01388	0	33.4015	348.206	-6.42395	-0.124507	0.006	-1.47608	0	3.20786	0
2.94	0	0	0	0	0	0	0	0	0	7.64466	394.562	-34.9884	-0.249377	0.006	-1.04987	0	-3.95748	0	33.4625	350.83	-6.88171	-0.124341	0.006	-1.4762	0	3.21838	0
2.945	0	0	0	0	0	0	0	0	0	9.35364	394.959	-35.2326	-0.249789	0.006	-1.04987	0	-3.98433	0	32.9895	353.333	-7.84302	-0.124314	0.006	-1.47587	0	3.23998	0
2.95	0	0	0	0	0	0	0	0	0	10.3149	394.714	-35.3699	-0.250187	0.006	-1.04991	0	-3.94975	0	32.7911	355.316	-9.15527	-0.124276	0.006	-1.4758	0	3.24078	0
2.955	0	0	0	0	0	0	0	0	0	10.8643	395.325	-35.5072	-0.249824	0.006	-1.04959	0	-3.9946	0	32.3334	357.697	-10.2997	-0.124464	0.006	-1.47599	0	3.23925	0
2.96	0	0	0	0	0	0	0	0	0	11.1542	394.928	-35.1563	-0.249417	0.006	-1.04955	0	-3.98479	0	31.9519	359.222	-11.3983	-0.124367	0.006	-1.47598	0	3.2864	0
2.965	0	0	0	0	0	0	0	0	0	11.2	393.097	-34.5917	-0.249402	0.006	-1.04963	0	-4.01214	0	31.8298	360.291	-11.7798	-0.124237	0.006	-1.47596	0	3.21835	0
2.97	0	0	0	0	0	0	0	0	0	10.8185	391.48	-33.9813	-0.249156	0.006	-1.0493	0	-4.0576	0	31.8298	360.901	-12.4359	-0.124129	0.006	-1.47612	0	3.19124	0
2.975	0	0	0	0	0	0	0	0	0	9.97925	390.656	-33.6457	-0.248464	0.006	-1.0494	0	-4.11401	0	31.7535	362.091	-12.6801	-0.123975	0.006	-1.47618	0	3.17583	0
2.98	0	0	0	0	0	0	0	0	0	9.06373	390.808	-33.5541	-0.247651	0.006	-1.04941	0	-4.24175	0	31.3873	363.708	-12.6801	-0.124016	0.006	-1.47614	0	3.14461	0
2.985	0	0	0	0	0	0	0	0	0	8.27027	390.289	-33.2947	-0.247375	0.006	-1.04918	0	-4.32035	0	31.2805	364.075	-12.6343	-0.123927	0.006	-1.47606	0	3.1923	0
2.99	0	0	0	0	0	0	0	0	0	7.23267	389.313	-33.1879	-0.246346	0.006	-1.04901	0	-4.39393	0	30.5634	363.464	-12.2833	-0.123811	0.006	-1.47611	0	3.18414	0
2.995	0	0	0	0	0	0	0	0	0	5.76783	389.618	-33.3252	-0.245909	0.006	-1.04906	0	-4.55389	0	30.2429	362.976	-11.4746	-0.123596	0.006	-1.47652	0	3.15963	0
3	0	0	0	0	0	0	0	0	0	3.69263	391.052	-33.9966	-0.245176	0.006	-1.04906	0	-4.6986	0	29.7699	362.732	-9.79614	-0.123351	0.006	-1.47663	0	3.18385	0
3.005	0	0	0	0	0	0	0	0	0	1.8921	393.433	-34.5917	-0.244964	0.006	-1.04871	0	-4.71195	0	29.129	363.403	-8.5907	-0.123318	0.006	-1.47668	0	3.22572	0
3.01	0	0	0	0	0	0	0	0	0	1.05286	395.172	-34.9121	-0.244536	0.006	-1.0489	0	-4.77295	0	28.5645	363.403	-7.01904	-0.123109	0.006	-1.47693	0	3.20943	0
3.015	0	0	0	0	0	0	0	0	0	0.3357	396.179	-35.2783	-0.244018	0.006	-1.04902	0	-4.83665	0	27.9083	363.739	-5.08117	-0.123073	0.006	-1.4774	0	3.26052	0
3.02	0	0	0	0	0	0	0	0	0	-0.488275	397.827	-35.6446	-0.243743	0.006	-1.04889	0	-4.83792	0	27.8015	364.716	-2.7771	-0.12298	0.006	-1.47745	0	3.24893	0
3.025	0	0	0	0	0	0	0	0	0	-1.78527	399.719	-35.7819	-0.243694	0.006	-1.04897	0	-4.94538	0	27.6489	365.723	-1.02234	-0.122978	0.006	-1.47774	0	3.32665	0
3.03	0	0	0	0	0	0	0	0	0	-3.34167	400.848	-35.7666	-0.243457	0.006	-1.04897	0	-4.98739	0	27.359	367.432	0.442508	-0.12266	0.006	-1.47842	0	3.33477	0
3.035	0	0	0	0	0	0	0	0	0	-5.18798	400.848	-35.4309	-0.243108	0.006	-1.04921	0	-4.9401	0	26.9012	368.53	1.26648	-0.122649	0.006	-1.4785	0	3.36842	0
3.04	0	0	0	0	0	0	0	0	0	-7.14111	399.689	-34.607	-0.242712	0.006	-1.04933	0	-4.97818	0	26.5503	369.507	2.45667	-0.122413	0.006	-1.47844	0	3.38844	0
3.045	0	0	0	0	0	0	0	0	0	-8.68224	398.499	-33.1574	-0.242518	0.006	-1.04957	0	-5.04307	0	26.2909	369.904	3.40271	-0.122253	0.006	-1.47867	0	3.44448	0
3.05	0	0	0	0	0	0	0	0	0	-10.0555	398.132	-32.0587	-0.242372	0.006	-1.05003	0	-5.00279	0	25.6195	370.148	3.98255	-0.122151	0.006	-1.47875	0	3.44602	0
